<?xml version="1.0" standalone="no"?>
<!DOCTYPE svg PUBLIC "-//W3C//DTD SVG 1.1//EN" "http://www.w3.org/Graphics/SVG/1.1/DTD/svg11.dtd" >
<svg xmlns="http://www.w3.org/2000/svg" xmlns:xlink="http://www.w3.org/1999/xlink" version="1.1">
<metadata></metadata>
<defs>
<font id="wwlb1regular" horiz-adv-x="512" >
<font-face units-per-em="2048" ascent="1638" descent="-410" />
<missing-glyph horiz-adv-x="500" />
<glyph />
<glyph />
<glyph horiz-adv-x="682" />
<glyph unicode="&#xd;" horiz-adv-x="681" />
<glyph unicode=" " />
<glyph unicode="!" horiz-adv-x="370" d="M102 317q0 23 11 33q14 18 28 19q12 0 13 8q-1 12 28 18q20 6 33 6q20 0 33 -24q16 -39 16 -62q0 -25 -20 -53q-16 -25 -27.5 -31t-34.5 -6q-37 0 -55 27q-25 33 -25 65zM129 745v152l2 324l27 16q51 31 71 31q27 0 33 -37q6 -31 6 -344q0 -276 -10 -325.5t-70 -49.5 q-20 0 -28 5t-19 26q-12 25 -12 202z" />
<glyph unicode="&#x22;" horiz-adv-x="589" d="M102 1077v113l39 27q39 27 64 26q20 0 25.5 -6t13.5 -45q8 -49 8 -117v-28q-2 -94 -23 -121q-27 -39 -61 -39q-12 0 -21 6q-45 27 -45 184zM344 1067q0 115 6 127q27 35 78 53q16 4 21 4q23 0 29.5 -38.5t6.5 -155.5l2 -123l-26 -29q-27 -27 -53 -26q-41 0 -58 51 q-6 20 -6 137z" />
<glyph unicode="&#x201d;" horiz-adv-x="589" d="M102 1077v113l39 27q39 27 64 26q20 0 25.5 -6t13.5 -45q8 -49 8 -117v-28q-2 -94 -23 -121q-27 -39 -61 -39q-12 0 -21 6q-45 27 -45 184zM344 1067q0 115 6 127q27 35 78 53q16 4 21 4q23 0 29.5 -38.5t6.5 -155.5l2 -123l-26 -29q-27 -27 -53 -26q-41 0 -58 51 q-6 20 -6 137z" />
<glyph unicode="&#x201c;" horiz-adv-x="589" d="M102 1077v113l39 27q39 27 64 26q20 0 25.5 -6t13.5 -45q8 -49 8 -117v-28q-2 -94 -23 -121q-27 -39 -61 -39q-12 0 -21 6q-45 27 -45 184zM344 1067q0 115 6 127q27 35 78 53q16 4 21 4q23 0 29.5 -38.5t6.5 -155.5l2 -123l-26 -29q-27 -27 -53 -26q-41 0 -58 51 q-6 20 -6 137z" />
<glyph unicode="'" horiz-adv-x="352" d="M102 1108q0 76 11 86q14 14 26 14q10 0 11 9q-1 10 26 18q23 8 35 8q18 0 25 -14q8 -16 12 -154l2 -139l-27 -29q-29 -29 -55 -28q-25 0 -41 24q-25 39 -25 205z" />
<glyph unicode="&#x2019;" horiz-adv-x="352" d="M102 1108q0 76 11 86q14 14 26 14q10 0 11 9q-1 10 26 18q23 8 35 8q18 0 25 -14q8 -16 12 -154l2 -139l-27 -29q-29 -29 -55 -28q-25 0 -41 24q-25 39 -25 205z" />
<glyph unicode="&#x2018;" horiz-adv-x="352" d="M102 1108q0 76 11 86q14 14 26 14q10 0 11 9q-1 10 26 18q23 8 35 8q18 0 25 -14q8 -16 12 -154l2 -139l-27 -29q-29 -29 -55 -28q-25 0 -41 24q-25 39 -25 205z" />
<glyph unicode="," horiz-adv-x="415" d="M106 158q0 25 16.5 66.5t16.5 45.5q12 43 29.5 80t26.5 37q10 0 30 16q23 18 51 19q23 0 28 -6t9 -35v-14q0 -82 -67 -222q-16 -33 -26.5 -43t-35.5 -18q-20 -6 -32 -6q-25 0 -41 49q-4 10 -5 31z" />
<glyph unicode="." horiz-adv-x="364" d="M104 330q0 10 29 37q31 26 64 36q20 6 32 7q20 0 29 -48q4 -29 4 -36q0 -23 -10 -41q-12 -27 -25.5 -34t-46.5 -7q-47 0 -69 61q-6 14 -7 25z" />
<glyph unicode=":" horiz-adv-x="366" d="M102 940q0 52 29 64q2 0 20.5 10t38 18t31.5 8q16 0 19 -12q2 -6 14 -47q6 -18 6 -35q0 -45 -43 -94q-27 -29 -53 -29q-49 0 -60 86q-2 10 -2 31zM123 330q0 47 27 47q10 0 26.5 14.5t26.5 16.5q20 4 22 4q25 0 35 -45q4 -25 4 -37q0 -39 -20.5 -62.5t-55.5 -23.5 q-27 0 -38 10t-23 45q-4 10 -4 31z" />
<glyph unicode=";" horiz-adv-x="411" d="M102 135q0 25 15 88q31 129 65 150q8 6 20.5 14t28.5 16q18 8 39 9q23 0 29 -15q10 -37 10 -61q0 -20 -8 -29q-20 -23 -47 -135q-14 -59 -32.5 -84t-51.5 -25q-68 0 -68 72zM164 920q0 39 16 38q10 1 33 19q25 18 53 16q25 -2 31 -9t10 -38q2 -12 2 -28q0 -20 -18 -46 q-25 -31 -58 -30q-53 0 -67 55q-2 6 -2 23z" />
<glyph unicode="?" horiz-adv-x="780" d="M111 1157q0 8 2 12q4 18 45 43t90 37q41 10 98 11q43 0 70 -3q117 -4 155 -26q41 -23 68 -62q27 -45 31 -129q2 -20 2 -51q0 -49 -19 -94q-41 -106 -153 -207q-61 -53 -66 -88q-8 -33 -33 -65q-23 -31 -49 -31h-10q-33 2 -49 37q-12 25 -12 39q0 8 10 55q10 43 25.5 62.5 t78.5 82.5q119 113 129 201q2 12 2 33q0 45 -43 69q-31 18 -82 19q-39 0 -67 -2q-51 -2 -148 -13q-33 -6 -47 7q-29 25 -28 63zM272 297q0 29 17 47q20 25 30 25q8 0 21 12t31 16q10 2 22 2q14 0 20.5 -9t10.5 -38q2 -10 2 -28q0 -47 -24.5 -73t-69.5 -26q-27 0 -43.5 21.5 t-16.5 50.5z" />
<glyph unicode="A" horiz-adv-x="1062" d="M111 303q0 8 10 24.5t66.5 146.5t58.5 136q29 57 70.5 200.5t58.5 236.5q6 43 26 71q18 27 18.5 43.5t15 37t26.5 20.5t12 8q0 24 67 24h5q23 -2 35 -17t55 -101q66 -127 74 -140q14 -23 14 -35q0 -25 37 -90q10 -18 31 -125q25 -113 73 -204q80 -150 86 -197 q2 -10 2 -25q0 -18 -18 -43q-26 -30 -55 -30h-2q-27 0 -36.5 9t-39.5 69q-68 129 -76 145l-33 70l-98 4q-154 12 -158 12q-37 4 -41 4q-20 0 -26 -14q-68 -168 -74 -183q-53 -135 -121 -135q-23 0 -31 7.5t-20 33.5q-12 29 -12 37zM440 711l90 -4q90 -4 107 -13q2 0 6 -2 q8 0 8 16q0 42 -71 183q-49 100 -58 100q-2 0 -6 -6q-23 -84 -49 -180z" />
<glyph unicode="B" horiz-adv-x="872" d="M102 760v198q0 176 3.5 214t13.5 42q2 2 6 4.5t7 3.5t6 3l6 4l6 4q10 10 47 14q31 4 129 4q143 0 200 -8q51 -10 113.5 -41t83.5 -55q39 -49 39 -148q0 -68 -21 -108q-10 -23 -57 -82q-35 -45 -35 -55q0 -4 2 -4q59 -29 90 -91q27 -51 27 -100v-18q-2 -78 -31 -156 q-16 -39 -52 -82t-67 -57q-29 -14 -114 -15h-66h-63q-96 0 -131 -10q-12 -2 -27.5 -6t-25 -6t-11.5 -2q-8 0 -33.5 33.5t-35.5 58.5q-8 16 -9 461zM246 375l20 6q31 6 166 6h146l16 33q20 45 20 108q0 37 -14 50q-36 28 -149 75q-25 10 -115 11h-90v-289zM246 815h121 q121 0 129 14q8 18 69 48q37 16 56 92q10 37 10 47q0 6 -42 29.5t-77 35.5q-53 20 -158 21h-108v-287z" />
<glyph unicode="C" horiz-adv-x="964" d="M109 705q0 106 11 165.5t48 147.5q45 106 92 147q45 43 114 76t122 39q90 8 122 8q78 0 140 -18q61 -16 75.5 -26t18.5 -42q2 -8 2 -18q0 -18 -18 -43q-20 -29 -48 -29q-18 0 -79 16q-76 20 -166 20q-2 0 -5 1q-86 0 -122 -19q-84 -39 -109 -112q-12 -43 -37 -90 q-23 -43 -26 -172q-2 -31 -2 -74q0 -51 22 -88q20 -33 37 -76q16 -41 31.5 -56.5t52.5 -25.5q10 -2 94 -33q55 -20 131 -30q47 -8 68 -8q14 0 39 12q29 18 57 18q20 0 25.5 -6t9.5 -35q2 -8 2 -22q0 -29 -17.5 -46.5t-62.5 -37.5q-51 -23 -84 -23q-25 0 -41 2 q-115 8 -252 57.5t-153 118.5q-2 20 -39 84q-33 53 -43 96.5t-10 121.5z" />
<glyph unicode="D" horiz-adv-x="1001" d="M102 1184q0 17 27 35q35 25 52.5 29.5t76.5 4.5h23q215 0 374 -69q49 -20 68.5 -34.5t44.5 -49.5q12 -16 34.5 -45t30 -41.5t19.5 -40t20 -66.5q23 -96 23 -170q0 -63 -14 -123q-43 -184 -148.5 -263t-333.5 -97q-82 -4 -137 -4h-43l-84 4l-14 33q-12 27 -12 188v131 q0 88 1 186.5t2 151.5t1 86q0 84 -7 121q-4 29 -4 33zM236 383l137 6q223 8 291 66q35 29 49 56.5t32 96.5q16 66 17 131v45q-4 76 -7 93.5t-24 37.5q-41 45 -55 70q-16 27 -33.5 40.5t-58.5 27.5q-150 57 -287 57h-49l-6 -192q-6 -160 -6 -365v-170z" />
<glyph unicode="E" horiz-adv-x="813" d="M102 563q0 18 1 41t1 29q4 35 13 303q4 188 11 234.5t36 58.5q14 6 27.5 12t19.5 10t17.5 6.5t23.5 2.5q31 0 108 -15q33 -6 80 -6q20 0 99 4q82 4 100 4q25 0 25 -2q4 -2 12 -41q2 -10 2 -22q0 -20 -21 -41q-16 -18 -33.5 -23.5t-78.5 -9.5q-70 -6 -193 -6l-104 2 l-4 -133l-2 -133l204 2q29 0 70 1t53 1q70 0 85.5 -9.5t21.5 -44.5q2 -8 2 -18q0 -18 -23 -43l-26 -29h-385l-11 -75q-6 -43 -6 -72t6 -55q8 -35 9 -88v-39q76 0 226 -2t226 -2l6 -39q4 -25 5 -29q0 -18 -15 -35l-18 -26l-262 -3h-152q-113 0 -127 13q-18 18 -25 170 q-4 98 -4 147z" />
<glyph unicode="F" horiz-adv-x="770" d="M102 1018q0 186 4 194q8 14 18.5 14.5t23 12.5t30.5 16h53q420 0 424 -4q2 -20 7 -43q2 -10 2 -26q0 -18 -19 -37l-22 -25h-385v-327h397l8 -35q2 -10 2 -27q0 -55 -49 -67q-23 -8 -195 -9h-163v-180q0 -180 -13 -205q-18 -37 -57 -37q-25 0 -43 21q-12 14 -14 79.5 t-7 401.5q0 55 -1 150.5t-1 132.5z" />
<glyph unicode="G" horiz-adv-x="1040" d="M109 727q0 88 4 116.5t24 80.5q25 63 76 144t88 114q31 28 107 63l71 35h111q125 0 158 -8q78 -12 96 -15q53 -8 55 -16q10 -37 10 -53q0 -27 -22 -49q-27 -29 -66 -29q-31 0 -76 12q-61 14 -157 21q-33 2 -74 2q-43 0 -82 -21q-74 -37 -137.5 -151.5t-63.5 -241.5 q0 -74 23 -133q43 -119 199 -195l79 -38l134 -5l131 -2v58q0 4 6 139l6 82h-244l-14 27q-10 18 -10 36q0 27 20 39q29 23 46.5 27t80.5 4h78h162l6 -35q2 -8 2 -51q0 -82 -6 -188q-10 -170 -20.5 -209t-51.5 -47q-27 -6 -182 -15q-39 -2 -96 -2q-109 0 -195 43 q-104 53 -155.5 105.5t-90.5 152.5q-23 55 -26.5 83t-3.5 120z" />
<glyph unicode="H" horiz-adv-x="964" d="M102 745q0 426 7 451q8 17 24 23q59 34 69 34h1q20 0 26.5 -49t6.5 -194l2 -168h491v174q0 172 6 180q10 12 43 30.5t47 18.5q16 0 25 -16q6 -12 10 -465v-238q0 -186 -7 -227t-40 -55q-20 -10 -35 -11q-27 0 -38 40t-15 141q-4 78 -10 207l-6 88h-471v-201 q0 -164 -9 -208t-41 -52q-16 -4 -24 -4q-29 0 -45 35q-10 23 -13.5 97.5t-3.5 368.5z" />
<glyph unicode="I" horiz-adv-x="329" d="M102 662v92v444l39 25q39 23 56 22q20 0 26 -33q4 -37 4 -467q0 -322 -2 -380t-16 -78q-20 -27 -51 -25q-33 2 -41 23q-14 37 -15 377z" />
<glyph unicode="J" horiz-adv-x="659" d="M111 373q0 23 32 43q39 24 60 24h2q16 0 26 -16q27 -51 88 -64q27 -6 48 -6q35 0 49 31q10 29 16 426q2 285 6.5 344.5t16.5 67.5q38 30 63 30h2q16 0 21.5 -5t9.5 -27q6 -55 6 -441q0 -406 -12 -438q-29 -76 -65 -102.5t-120 -30.5h-26q-162 0 -211 121q-12 27 -12 43z " />
<glyph unicode="K" horiz-adv-x="888" d="M102 756q0 432 7 456q4 15 16 15q10 0 26.5 14t24.5 16q20 4 27 5h2q12 0 15 -44t7 -206l4 -228l41 43q8 8 50.5 52.5t66.5 68.5q76 76 88 101q10 23 92 102.5t111 93.5q37 18 51 18.5t19.5 -7t9.5 -33.5q0 -2 1 -8.5t1 -10.5q0 -29 -21.5 -56.5t-83.5 -80.5 q-70 -63 -112 -135q-12 -16 -78 -82q-70 -66 -70 -80q0 -20 158 -162q55 -49 94 -96q31 -43 80 -84q47 -39 51 -84v-12q0 -68 -57 -76h-8q-20 0 -57 34t-150 150q-119 119 -143 142q-83 75 -102 75h-1q-8 0 -12 -2l-23 -10v-172q0 -125 -2 -153.5t-16 -45.5q-20 -23 -49 -22 q-43 0 -50.5 63.5t-7.5 440.5z" />
<glyph unicode="L" horiz-adv-x="792" d="M102 750v58q0 389 7 398q6 8 14 13.5t22.5 11.5t20.5 10q16 10 29 10q18 0 24 -24q8 -25 8 -430v-410h447l4 -29q4 -18 4 -43q0 -27 -16 -43q-10 -12 -30 -15t-104 -3h-147l-260 2l-10 23q-13 25 -13 471z" />
<glyph unicode="M" horiz-adv-x="1202" d="M102 745q0 428 15 459q4 12 18 13q13 0 21 12q6 8 53 15t70 7h2q18 0 36 -88q12 -59 27 -82q35 -49 109 -229q27 -65 27 -70t26 -61q10 -23 41 -111t39 -106l2 -2q12 0 45 92q8 29 67.5 139.5t67.5 136.5q10 35 41 96.5t31 73.5q0 16 34 90q33 76 58 84q25 12 26 19 q4 8 68 8q41 0 53.5 -3t14.5 -15q6 -31 6 -488q0 -346 -2 -409.5t-17 -77.5q-18 -20 -49 -21q-43 0 -51 60.5t-8 369.5v365l-31 -66q-20 -39 -52 -114.5t-63 -132.5q-84 -156 -141 -332q-39 -121 -86 -121q-25 0 -51 20q-33 20 -43 41t-35 103q-31 102 -122 326.5 t-103 224.5q-8 0 -8 -342v-344l-23 -25q-23 -25 -47 -24q-31 0 -49 36q-10 23 -13.5 100t-3.5 373z" />
<glyph unicode="N" horiz-adv-x="1011" d="M102 709v204q0 111 1 166.5t4.5 89t8.5 41t15 7.5q16 0 25 12q14 14 53 14q29 0 39 -4t22 -25q14 -23 90 -110q66 -72 209 -295q35 -53 35 -61q0 -6 31 -56q18 -31 52 -93t56 -97l31 -53v757l39 29q35 25 57 25q25 0 31 -31q8 -29 8 -490v-112q0 -299 -11 -357.5 t-67 -58.5h-22q-39 0 -50 5t-32 36q-33 45 -109 182q-129 229 -169 297q-80 133 -156 225l-51 66l-6 -385q-6 -391 -15 -406q-17 -30 -51 -30h-2q-27 0 -45 18q-12 14 -15.5 87t-5.5 403z" />
<glyph unicode="O" horiz-adv-x="1132" d="M109 666v65q0 121 26 225q29 104 56.5 148.5t93.5 87.5q114 74 235 88q43 6 78 6q78 0 170 -45q162 -78 209 -166q49 -94 49 -274v-41q-4 -121 -33 -205q-41 -119 -74.5 -169t-117.5 -114q-66 -51 -111 -65t-135 -14q-70 0 -92.5 5t-83.5 35q-109 55 -153 106.5 t-91 182.5q-26 68 -26 139v5zM238 733q0 -100 26 -170q29 -76 65 -111.5t120 -78.5q96 -45 126 -45q4 0 14.5 1t18.5 1q47 2 65.5 8t63.5 39q53 39 80 83t55 140q20 68 21 203q0 133 -14 160q-39 71 -172 141q-63 33 -154 37h-25q-129 0 -204 -74q-25 -25 -35 -46.5 t-27 -86.5q-24 -92 -24 -193v-8z" />
<glyph unicode="P" horiz-adv-x="839" d="M102 729q0 461 11 477q12 17 37 31q25 12 92 12q55 0 98 -2q205 -6 264.5 -25.5t91.5 -93.5q29 -57 33 -151l4 -92l-33 -58q-39 -68 -68.5 -95t-105.5 -66l-96 -48l-100 3h-101v-347l-28 -28q-25 -25 -43 -25q-20 0 -39 25q-12 16 -14.5 82.5t-2.5 400.5zM229 758h103 q147 0 190 43q10 10 21 10q8 0 35 49q28 45 28 91q0 48 -17.5 84t-43.5 42q-21 3 -60 19q-37 12 -147 12h-109v-350z" />
<glyph unicode="Q" horiz-adv-x="1118" d="M113 856q18 129 50 194.5t99 118.5q66 51 96 65.5t93 22.5q59 8 139 9q131 0 207 -25q53 -18 70.5 -31.5t37.5 -48.5q88 -158 88 -350q0 -82 -16 -193q-12 -68 -51 -141l-41 -80l35 -39q90 -104 90 -125q0 -4 -80 -8l-78 -6q-14 14 -44 42t-46 40l-43 -16 q-43 -16 -156 -17h-112l-86 43q-96 47 -137.5 97.5t-80.5 175.5q-38 116 -38 206q0 46 4 66zM246 784q0 -96 28 -166q29 -72 57.5 -102.5t104.5 -66.5q84 -41 137 -41h52l-4 36q-4 23 -1 30t17 13q25 8 29 19q8 14 34 14q31 0 54 -14l32 -19l15 21q35 55 53 188 q10 59 10 105q0 41 -8 92q-12 94 -43 143q-20 35 -33.5 44.5t-60.5 25.5q-71 24 -164 24h-8q-47 0 -94 -6q-68 -10 -109 -43q-55 -43 -76.5 -108.5t-21.5 -188.5z" />
<glyph unicode="R" horiz-adv-x="892" d="M102 750q0 330 6.5 408.5t28.5 88.5q2 0 15.5 6.5t19.5 10.5q16 10 76 10q78 0 183.5 -17.5t160.5 -39.5q106 -45 141 -242q4 -20 4 -53q0 -68 -71 -140q-12 -10 -30 -27.5t-30 -29.5t-18 -16l-25 -19l39 -53q14 -16 60.5 -93t72.5 -100q49 -43 49 -106q0 -35 -18 -59.5 t-39 -24.5q-31 0 -80 61q-31 37 -59.5 86.5t-52.5 79.5q-68 90 -105 150l-16 28h-176v-180q0 -129 -3 -158.5t-16 -48.5q-20 -27 -53 -24.5t-47 35.5q-10 23 -13.5 97.5t-3.5 369.5zM238 795h73q86 0 138 6q45 4 61 11t49 36q31 27 38 40t7 42q0 45 -20 86q-18 41 -50 59.5 t-116 36.5q-51 12 -125 16l-55 7v-340z" />
<glyph unicode="S" horiz-adv-x="851" d="M109 365q0 35 16 34q12 0 26.5 14.5t43.5 14.5q37 0 77 -20q39 -18 95 -19q41 0 71 2l121 6l25 29q30 40 30 78q0 27 -8 45q-12 35 -70.5 82t-123.5 74q-270 119 -271 303q0 90 30 144t99 95q57 33 129 41q106 8 138 8q45 0 86 -8q47 -14 63 -16q29 -6 38 -16.5t13 -36.5 q2 -8 2 -19q0 -20 -18 -45q-20 -29 -57 -29q-29 0 -70 15q-37 12 -86 12q-39 0 -66 -2q-106 -4 -123 -12q-43 -14 -43 -105q0 -35 6.5 -47t41.5 -45q35 -35 65.5 -53.5t120.5 -61.5q119 -57 172 -125.5t59 -177.5l4 -75l-38 -62q-49 -76 -112 -101.5t-216 -35.5 q-25 -2 -62 -2q-39 0 -108 22q-51 16 -67.5 25.5t-24.5 28.5q-8 16 -8 41z" />
<glyph unicode="T" horiz-adv-x="1017" d="M113 1208q0 20 22 31q25 13 33 21q10 10 373 10q360 0 360 -10q0 -2 1 -9.5t3 -17.5t2 -16q4 -31 -18 -58l-23 -24h-280q2 -141 6 -425t6 -425l-20 -29q-18 -27 -43 -27h-11q-33 2 -47 35q-16 33 -16 324q0 313 -6 420l-6 127h-312l-14 32q-10 27 -10 41z" />
<glyph unicode="U" horiz-adv-x="991" d="M104 1069v49.5t2.5 39t2.5 28.5t4 20.5t5 14.5t8 9t10 6t14.5 6t15.5 7q25 10 33 11q18 0 26 -48q6 -41 15 -346q6 -252 17 -309t62 -102q39 -35 103 -60q55 -22 102 -22h4h31l70 4l41 45q41 45 63 90q16 35 18.5 75t4.5 279q0 324 -4 338.5t-4 20.5t4 10t16 8q23 8 55 8 q39 0 49 -10q16 -10 17 -250q0 -158 -2 -266l-2 -188l-39 -76q-41 -82 -94 -135q-51 -55 -98.5 -71.5t-151.5 -16.5q-94 0 -164 28.5t-114 71.5t-81 117l-34 73l-3 342q0 47 -1 113t-1 86z" />
<glyph unicode="V" horiz-adv-x="1083" d="M119 1274q12 14 77.5 14t71.5 -16q0 -4 29 -71.5t29 -76.5q0 -10 53 -147q43 -111 74 -193q4 -14 10 -29.5t11 -25.5t5 -12q4 -4 35 -111q35 -119 43 -119q6 0 12 25q12 37 27 66q16 27 16 51q0 18 32 115.5t48 129.5q18 35 41 97q47 131 78 192q8 10 8 31q0 14 15 49 l14 37h63q61 0 62 -14q0 -18 -24.5 -92t-49.5 -127q-16 -35 -40.5 -106t-45.5 -116q-31 -72 -59 -174q-20 -86 -37 -112q-10 -16 -45 -140q-12 -45 -35 -86t-41 -49q-14 -8 -55 -8q-43 0 -52 10q-8 8 -16 39q-6 18 -22 62q-16 39 -56.5 169t-58.5 177q-43 119 -82 221 q-66 178 -115 252q-26 38 -26 65q0 15 6 23z" />
<glyph unicode="W" horiz-adv-x="1449" d="M113 1184q-1 23 26 37q23 12 58 12q29 0 32 -10q4 -12 25.5 -81t34.5 -102q39 -90 108 -329q31 -100 33 -123q8 -41 12 -41q6 0 29 69.5t29 110.5q4 25 67 260q14 61 31 98q14 33 14 70q0 43 18.5 56.5t82.5 13.5q51 0 62 -2t18 -17q10 -25 41.5 -129t37.5 -135 q8 -37 30 -97.5t30 -70.5q8 -12 27.5 -64.5t25.5 -81t25.5 -70.5t25.5 -42q8 0 31 94q4 20 26.5 103.5t28.5 126.5q10 78 36 192.5t40 145.5l23 43h57q59 0 61 -21q4 -20 -16 -55q-12 -23 -42 -163t-40 -210q-43 -174 -49 -194q-45 -164 -49 -183q-6 -31 -27 -59 q-18 -27 -18 -35q0 -4 -23 -31q-25 -25 -55 -24q-20 0 -27 12q-39 61 -121 297q-31 88 -43 107q-10 12 -38.5 98t-42.5 147q-23 94 -35 94q-8 0 -21 -45q-2 -10 -11 -44.5t-18.5 -72.5t-17.5 -69q-51 -209 -78 -272q-16 -45 -22 -76q-8 -41 -27 -66q-23 -27 -22 -45 q0 -25 -23.5 -44t-50.5 -19q-23 0 -35 14q-14 14 -41 106.5t-37 151.5q-14 86 -84 297q-23 76 -53 152q-59 150 -59 215z" />
<glyph unicode="X" horiz-adv-x="985" d="M106 291q0 10 19 35q84 147 98 168q66 92 154 274l24 47l-24 27q-31 33 -89.5 108.5t-72.5 104.5q-16 33 -49 69q-23 25 -41 68q-10 25 -8 32t16 19q25 18 74 19q41 0 53 -15q8 -8 49 -78q33 -55 109 -143l69 -82l21 27q14 16 55 76q8 14 96 137l62 86h61q41 0 51.5 -3 t10.5 -14q0 -14 -43 -79q-168 -244 -183 -265q-45 -66 -45 -67q0 -12 78 -123q82 -127 113 -189q39 -80 61 -104q39 -47 47 -88q4 -25 5 -29q0 -18 -13.5 -22t-54.5 -4h-61l-27 39q-20 31 -64 110q-35 70 -104 174l-68 101l-18 -31q-2 -4 -63.5 -122t-75.5 -128 q-18 -18 -43 -68q-31 -63 -47.5 -74.5t-69.5 -11.5q-61 0 -62 19z" />
<glyph unicode="Y" horiz-adv-x="978" d="M113 1241q0 18 7 23.5t30 5.5h34q45 0 55.5 -4t18.5 -25q8 -23 26.5 -56.5t28.5 -58.5q12 -35 49 -79q20 -25 63.5 -104t57.5 -99l21 -25l39 74q6 14 20.5 44t25.5 52.5t19 34.5q16 31 48 99.5t55 103.5l32 45l60 -4q61 -2 61 -23q0 -16 -37 -69q-35 -51 -49 -93 q-6 -31 -67 -137q-31 -57 -70 -145t-55.5 -119t-16.5 -113v-96l4 -174l-24 -31q-25 -33 -51.5 -32.5t-40.5 26.5q-14 23 -23 213l-6 191l-51 77q-51 78 -68 121q-20 47 -43 72q-23 27 -88 156t-65 149z" />
<glyph unicode="Z" horiz-adv-x="925" d="M111 322q0 2 34 45q63 70 119 176q61 123 172 274q190 260 191 305q0 12 -234 13h-229v51q0 47 16 67q14 14 172 15h144l303 -2l6 -39q4 -25 4 -31q0 -16 -10 -33q-14 -25 -15 -37q0 -8 -26 -47q-18 -25 -71.5 -116t-78.5 -121q-141 -188 -227 -344q-55 -100 -55 -103 q0 -8 245 -8l244 -2l4 -31q4 -31 -4 -61q-4 -31 -43 -38t-199 -7h-131l-301 2l-14 33q-16 33 -16 39z" />
<glyph unicode="a" horiz-adv-x="856" d="M205 621q59 47 113.5 64t201.5 38l80 12q-6 23 -14 47q-10 39 -44 74t-65 43q-20 4 -45 4q-117 0 -147 -22q-20 -14 -45 -15q-23 0 -33 13q-20 27 -21 65q0 10 2 14q10 20 58.5 43t97.5 33q43 8 98 8q94 0 136 -22q25 -12 59.5 -48t48.5 -65q8 -14 39 -133 q27 -106 27 -199v-86q-2 -117 -6.5 -147.5t-18.5 -52.5q-27 -43 -57 -43q-25 0 -43 30q-6 10 -21 37q-4 10 -57 -20q-39 -20 -61.5 -24.5t-96.5 -4.5q-109 0 -164 23q-59 25 -80 47q-38 40 -38 101q0 107 96 186zM241 463q1 -6 15 -17q53 -37 166 -45l78 -6l26 29 q29 29 33 29q2 0 31 20q18 14 22 25.5t4 46.5v51h-36q-12 0 -146 -18q-86 -12 -124 -32t-60 -61q-10 -16 -9 -22z" />
<glyph unicode="b" horiz-adv-x="870" d="M102 797q0 485 9 497q4 9 18 15q4 2 18.5 10t28.5 14t25 6q14 0 20 -16q8 -49 8 -193q0 -170 4.5 -178t42.5 17q27 16 111 41q55 14 78 14q18 0 49 -6q72 -16 139 -74q41 -33 55.5 -62.5t30.5 -107.5q25 -123 25 -203q0 -47 -10 -88q-16 -59 -46 -115.5t-53 -72.5 q-57 -45 -180 -45q-82 0 -115 24l-20 13q-23 14 -33 18q-43 20 -49 27q-14 10 -18 7t-13 -30q-16 -63 -67 -63q-43 0 -50.5 68.5t-7.5 482.5zM238 555l38 -41q35 -37 82 -61q12 -6 36 -19.5t39.5 -22t38 -15.5t44.5 -7q25 0 49.5 6t46 66.5t21.5 124.5q0 49 -11.5 113.5 t-21.5 80.5q-10 19 -59 56q-59 45 -125 45q-80 0 -125 -64q-16 -25 -33.5 -38t-18.5 -29.5t-1 -87.5v-107z" />
<glyph unicode="c" horiz-adv-x="788" d="M109 680q0 57 14 102q23 74 49.5 109t85.5 70q93 53 195 65q57 8 94 8q31 0 57 -8q29 -8 36 -15t11 -34q2 -8 2 -23q0 -20 -14 -41l-18 -24h-121q-82 0 -107.5 -3t-56.5 -20q-86 -43 -98 -198q-2 -16 -2 -45q0 -150 114 -224q47 -29 131 -39q49 -6 67.5 -6t55.5 17 q37 18 49 18q18 0 25 -41q2 -8 2 -24q0 -43 -51 -80q-20 -14 -44 -16.5t-116 -2.5h-127l-61 35q-55 33 -83 66.5t-57 99.5q-20 43 -24 72.5t-6 111.5q-2 29 -2 70z" />
<glyph unicode="d" horiz-adv-x="843" d="M109 659q0 156 29.5 221.5t123.5 112.5q43 23 65.5 27t90.5 4q94 0 147 -25l51 -24v303l29 22q41 31 72 31q8 0 12 -18.5t7 -82t4 -165.5t1 -287q0 -375 -2 -443.5t-16 -88.5q-18 -27 -49 -27q-18 0 -26.5 5t-16.5 26q-14 29 -15 53q0 23 -6 23t-37 -19q-86 -51 -145 -51 q-20 0 -33 2q-59 4 -118.5 30.5t-90.5 61.5q-23 23 -51 105q-18 53 -22 83.5t-4 120.5zM229 657q0 -145 66 -198q74 -63 149 -64h11q29 0 96 39l65 39v145q0 102 -3 125t-15 27q-16 4 -29 33q-10 28 -65 53q-59 29 -127 29t-90.5 -16.5t-38.5 -77.5q-18 -66 -19 -134z" />
<glyph unicode="e" horiz-adv-x="843" d="M109 498l4 145q4 117 13 158t42 86q20 27 94 78t109 61q23 6 49 6q86 0 207 -59q68 -31 102 -228q12 -68 12 -86q0 -14 -8 -34q-16 -27 -24 -31q-8 -6 -242 -6h-231v-25q0 -25 38 -84q41 -59 97 -86q39 -20 60.5 -25.5t72.5 -5.5q80 0 133 15q41 10 63 10h7 q18 -10 18 -59q0 -31 -8 -41q-14 -20 -38 -29.5t-93 -24.5q-78 -14 -125 -14q-213 0 -322 213zM246 739q0 -12 23.5 -14t154.5 -2h178l-8 33q-14 49 -32 67t-77 41q-82 29 -96 29q-39 0 -91 -56.5t-52 -97.5z" />
<glyph unicode="f" horiz-adv-x="831" d="M115 958q0 33 42 51.5t95 18.5h63v62q0 121 47 170q29 29 37 28q11 0 23 12q31 31 178 31q72 0 89.5 -12t25.5 -68q2 -12 2 -26q0 -18 -19 -39q-25 -25 -53 -25q-23 0 -35 18.5t-61 18.5q-74 0 -90 -29q-10 -14 -15 -79l-6 -62h97q96 0 98 -6q8 -14 10 -43q2 -8 2 -23 q0 -18 -18 -38q-16 -16 -31.5 -20.5t-73.5 -4.5h-80v-299q0 -211 -3 -258t-15 -62q-18 -18 -49 -18q-43 0 -51.5 47t-8.5 297v293q-29 0 -87 2t-87 2l-16 29q-10 16 -10 32z" />
<glyph unicode="g" horiz-adv-x="892" d="M109 715q0 59 20 100q69 143 190 182q29 10 113 11q72 0 103 -9q41 -14 75 -38q31 -23 39 -23q6 0 13 12q6 16 51 41q37 16 41 17q8 0 18 -10.5t12 -54.5t4 -241v-161q0 -127 -10 -150q-14 -37 -16 -145q-2 -80 -7 -105.5t-28 -74.5q-41 -88 -111.5 -124t-203.5 -36h-31 q-61 0 -83 5t-71 30q-74 35 -84 59q-4 8 -4 29q0 37 15 37q10 0 32 18q23 16 39 16q20 0 76 -24q39 -18 63.5 -22.5t96.5 -4.5q104 0 117 10q16 14 34.5 68.5t22.5 108.5l6 65l-23 -6q-31 -10 -43 -16q-61 -31 -167 -31h-19q-98 8 -154.5 44t-95.5 114q-20 39 -23 65.5 t-5 140.5q-2 45 -2 103zM244 500l28 -39q57 -74 183 -74q100 0 153 53q31 31 39 31t8 139.5t-8 139.5t-74 47q-69 49 -106 63q-37 12 -82 12q-37 0 -61 -10q-20 -10 -52 -49l-28 -39v-274z" />
<glyph unicode="h" horiz-adv-x="872" d="M102 791v489l37 27q35 25 58 24h4q23 -4 29 -44t6 -177l2 -145l57 30q78 45 145 45q31 0 99 -14q80 -18 109.5 -36.5t53.5 -63.5q41 -74 53.5 -155t12.5 -267q0 -156 -3 -194t-17 -56q-18 -29 -50 -29q-29 0 -45 27q-18 29 -20 266.5t-25 286.5q-18 41 -41 55 q-18 12 -81.5 26.5t-98.5 14.5q-4 0 -8 -1t-6 -1q-29 -8 -65 -41t-36 -53q0 -27 -16 -53q-12 -20 -15 -59.5t-3 -185t-3.5 -183t-14.5 -58.5q-10 -18 -20 -23t-34 -5h-6q-43 0 -50.5 71.5t-7.5 481.5z" />
<glyph unicode="i" horiz-adv-x="360" d="M102 1227l27 22q47 39 82 39h2q18 0 30.5 -19.5t12.5 -45.5q0 -31 -14 -52q-16 -25 -43 -24h-23q-33 2 -41 7t-18 34zM117 596q0 354 2 365q4 18 20 26q6 2 31 14.5t37 12.5q18 0 26 -23q8 -25 9 -377v-356l-23 -25q-23 -23 -45 -22q-23 0 -37 18q-12 14 -15 69.5 t-5 297.5z" />
<glyph unicode="j" horiz-adv-x="618" d="M119 33q0 33 16 33q8 0 31 18q23 16 41 16q27 0 72 -24q49 -27 73 -27h25v445q0 442 10 452q4 2 20.5 15.5t32 21.5t27.5 8q16 0 21.5 -6t7.5 -27q8 -37 8 -503q0 -469 -10 -494q-10 -23 -59.5 -48.5t-82.5 -25.5q-63 0 -134 35t-91 76q-8 14 -8 35zM369 1219 q-1 16 34 41q34 26 60 26h2q37 0 49 -65q2 -6 2 -17q0 -31 -21.5 -50t-54.5 -19q-31 0 -46 15t-23 54q-2 6 -2 15z" />
<glyph unicode="k" horiz-adv-x="821" d="M102 797q0 446 7 471q8 16 24 22q57 33 74 33q12 0 18 -8q8 -12 13 -311l4 -304l67 52q84 61 115 89.5t70 80.5q43 53 65.5 67.5t65.5 14.5q41 0 49 -17q6 -12 6 -24q0 -18 -55 -80q-57 -57 -58 -68q0 -4 -74.5 -72.5t-74.5 -70.5q-2 -6 31 -51q135 -180 198 -244 q63 -59 64 -80q0 -14 -12.5 -16t-80.5 -2h-94l-35 43q-18 20 -77 104q-59 88 -84 112.5t-49 24.5h-7l-30 -2l-4 -119q-2 -111 -13 -137t-57 -26h-6q-45 0 -52.5 66.5t-7.5 451.5z" />
<glyph unicode="l" horiz-adv-x="337" d="M102 784q0 358 5.5 436t25.5 78q9 1 23 15q10 12 32 12q29 0 35 -14q12 -25 13 -779q0 -199 -5 -223q-10 -65 -69 -65h-2q-43 0 -50.5 67.5t-7.5 472.5z" />
<glyph unicode="m" horiz-adv-x="1271" d="M102 823q0 55 1 86t4.5 48.5t8.5 22.5t13 5t23 14q12 12 38 13q25 0 29 -11q6 -14 8 -36l6 -25l58 33q84 47 160 47q66 0 127 -31q65 -33 65 -37q0 -6 14 -24q8 -12 15.5 -11t32.5 21q57 45 95 60.5t103 19.5l78 6l63 -41q88 -55 99 -117q4 -31 14 -41q10 -14 10 -274 q0 -190 -2 -229t-16 -58q-18 -25 -47 -28q-31 -2 -47 26q-12 20 -14.5 56t-2.5 190q0 201 -12 262q-8 33 -17.5 45t-43.5 37q-43 31 -68 31q-16 0 -27 -2q-41 -4 -78.5 -29t-54.5 -57q-18 -33 -22 -33q-2 0 -2 -133v-111l4 -244l-25 -26q-23 -23 -45 -23q-31 0 -49 37 q-16 33 -16 254t-15 270q-10 33 -20 43.5t-55 30.5q-51 25 -89 25q-59 0 -106 -78q-27 -47 -45 -55l-21 -11l7 -225l4 -176q0 -55 -17 -78q-20 -29 -55 -29q-43 0 -52 53.5t-14 336.5q-2 86 -2 200z" />
<glyph unicode="n" horiz-adv-x="860" d="M102 657v347l21 10q8 4 20.5 14t22.5 15.5t26.5 5.5t21.5 -6.5t9 -32.5l6 -39l56 16q12 4 30.5 10.5t31.5 10.5t20 6q25 10 88 14h14q88 0 166 -49t104 -119q16 -49 17 -182v-113q0 -242 -15 -270q-20 -43 -59 -43q-23 0 -39 18q-12 14 -15 56.5t-3 214.5v250l-37 32 q-41 33 -101 54q-53 18 -65 18q-10 0 -35 -10q-55 -16 -72 -19q-31 -4 -43 -37q-12 -35 -28 -41q-12 -6 -14 -38.5t-3 -200.5q0 -227 -10 -254q-23 -41 -61 -41q-8 0 -17 4q-27 14 -32 72.5t-5 326.5z" />
<glyph unicode="o" horiz-adv-x="919" d="M109 588v39q0 133 49 237q28 68 137 129l49 29l125 -4q104 -4 132 -15.5t114 -82.5q55 -49 73.5 -94.5t22.5 -157.5q2 -23 2 -58q0 -61 -14.5 -103t-59.5 -122q-37 -63 -63.5 -88t-89.5 -51q-59 -27 -150 -27q-96 0 -160 33q-29 14 -70.5 68.5t-68.5 109.5 q-25 53 -28 158zM233 606q0 -55 23 -100q43 -88 88 -115q49 -35 150 -35q16 0 36 4q41 8 63.5 32t55.5 89q31 68 31 101q0 6 -1 20t-1 25q-2 57 -8 73.5t-29 42.5q-33 37 -37 52q-10 34 -121 63q-102 25 -122.5 25t-45.5 -19q-51 -41 -69 -145q-12 -68 -13 -113z" />
<glyph unicode="p" horiz-adv-x="851" d="M102 442q0 504 7 529q4 14 16 14q10 0 26.5 14.5t24.5 16.5t19 2q18 0 26 -39l8 -39l62 33q70 33 133 41l72 10l65 -35q92 -47 124 -93t46 -155q16 -109 17 -178q0 -219 -166 -299q-61 -31 -90 -31q-8 0 -50 5q-23 2 -86 33.5t-120 31.5q-8 0 -9 -184q0 -137 -2 -168 t-16 -49q-18 -25 -51 -23t-43 25q-12 25 -13 538zM227 643l2 -108l37 -50q39 -49 70 -65q109 -49 160 -49q37 0 63 18q61 43 62 180q0 47 -11 129q-10 66 -26.5 91.5t-73.5 58.5q-47 31 -76 35q-2 0 -6 1t-8 1q-41 0 -85 -21.5t-44 -42.5q0 -16 -19.5 -41.5t-32 -25.5 t-12.5 -111z" />
<glyph unicode="q" horiz-adv-x="856" d="M111 559q0 8 1 25.5t1 27.5q6 160 39.5 235t121.5 120q63 33 142 34q10 0 24.5 1.5t20.5 1.5q41 0 98 -29q43 -23 59 -23q5 0 9 4q4 14 33.5 34t52.5 20q27 0 32 -29q6 -20 7 -528l2 -502l-27 -29q-25 -27 -43 -26.5t-37 22.5q-14 16 -17 49t-3 166q0 190 -6 191 q-8 0 -66 -27q-41 -18 -65.5 -22.5t-98.5 -4.5h-104l-70 68q-66 63 -86 104t-20 117zM231 524q72 -63 138 -131l73 6q78 8 129 39l56 33v154q0 109 -2 132t-13 27q-16 4 -28 13q-17 12 -80 41q-57 30 -113 30h-4q-49 0 -70 -10q-72 -41 -79 -244z" />
<glyph unicode="r" horiz-adv-x="657" d="M102 625q0 332 7 356q4 14 16 14t22.5 14.5t38.5 10.5q29 -2 31 -25q2 -33 21 -32q4 0 24 8q96 51 207 51q57 0 68.5 -8t11.5 -53q0 -41 -21.5 -57.5t-72.5 -16.5q-129 0 -191 -62l-37 -34v-248q0 -252 -14 -275q-23 -35 -57 -35q-10 0 -15 3q-27 4 -33 62t-6 327z" />
<glyph unicode="s" horiz-adv-x="800" d="M109 354q0 14 30 37q33 25 72 25q35 0 51 -10q20 -16 232 -35l51 -4l14 34q12 27 12 45.5t-17 33t-67 40.5q-121 61 -229 144q-20 14 -52 60t-46 81q-6 14 -6 29q0 33 41 92q27 39 84 67.5t120 36.5l70 8h4q23 0 96.5 -11t79.5 -15q14 -12 15 -62q0 -25 -5 -32 q-16 -35 -57 -35q-31 0 -72 8q-61 10 -106 10q-68 0 -105 -18q-25 -12 -24 -25q0 -10 12 -32.5t102.5 -84t174.5 -104.5q70 -35 88 -60.5t22 -95.5q0 -8 1 -20t1 -17q0 -31 -24 -86q-29 -59 -60 -88l-32 -30h-95q-176 0 -305 34q-31 10 -42 17.5t-19 27.5q-10 27 -10 35z " />
<glyph unicode="t" horiz-adv-x="757" d="M113 969q0 35 22 35q12 0 23 14q8 10 43 10h24l58 -2v55v6q0 87 30 87q10 0 26.5 13t31.5 13q23 0 30 -22.5t7 -94.5v-61h61q35 0 102 -6q29 -4 35 -10.5t10 -30.5q0 -4 1 -10.5t1 -8.5q0 -57 -36 -67q-10 -4 -97 -4l-77 2v-420l28 -29q27 -29 55.5 -40t83.5 -15 q57 -4 66 -16q8 -10 8 -35q0 -41 -18 -60q-20 -20 -99 -20q-131 0 -170 49q-12 16 -34 25q-31 12 -38 63t-7 252v244l-68 6q-72 8 -86 29q-16 23 -16 49z" />
<glyph unicode="u" horiz-adv-x="825" d="M106 870v107l37 27q34 26 56 26h2q25 0 26 -24q2 -18 11 -263q6 -240 22 -270q18 -33 23 -33q6 0 59 -30q53 -33 82 -33q61 0 145 61l29 21v248q0 246 8 258t41 29.5t47 17.5q20 0 24.5 -60.5t4.5 -335.5q0 -244 -2 -290.5t-16 -65.5q-18 -27 -48 -27q-31 0 -47 35 l-16 35l-31 -10q-135 -49 -186 -49t-123 43q-49 29 -64.5 44t-35.5 58q-25 47 -30 76t-9 143q-8 172 -9 262z" />
<glyph unicode="v" horiz-adv-x="876" d="M113 950q-4 23 24 45q8 6 16.5 12.5t16.5 11.5t10 5q20 8 28.5 4t18.5 -27q2 -8 13.5 -30.5t19.5 -42t8 -29.5q0 -2 62 -137q84 -174 108 -268q4 -16 9.5 -24.5t7.5 -6.5q14 16 47 137q47 172 114 301q59 111 119 111q25 0 29 -27q4 -29 4 -35q0 -23 -29 -78 q-20 -35 -86 -202q-23 -61 -69 -240q-14 -57 -37 -102l-23 -45q-23 0 -68.5 -2t-68.5 -2l-18 40q-18 41 -41 105q-39 119 -92 223q-27 55 -72 166t-51 137z" />
<glyph unicode="w" horiz-adv-x="1243" d="M109 936q-1 28 28 51q31 25 64 25q25 0 26 -15q0 -4 2 -13t4.5 -22.5t4.5 -21.5q2 -18 18 -80q8 -27 17.5 -76t17.5 -75q63 -223 76 -224q6 0 63 201q12 41 33.5 96.5t32.5 91.5q16 55 36 95l23 43h123l20 -54q27 -80 35 -110q35 -119 82 -234.5t62 -115.5l2 2 q6 12 12 47q4 37 27 115q8 31 26.5 110.5t35.5 143t34 85.5q6 10 61 11q35 0 46.5 -4t11.5 -19q0 -10 -11 -45q-18 -47 -67 -252t-66 -258q-25 -72 -26 -84q-27 -98 -82 -98q-33 0 -56 37q-33 53 -86 171t-84 212q-41 127 -47 127q-14 0 -55 -135q-68 -238 -110 -320 t-95 -82h-8l-41 4l-25 72q-45 129 -149 512q-16 66 -16 86z" />
<glyph unicode="x" horiz-adv-x="878" d="M106 293q0 20 37 82q23 41 44.5 71.5t52 70.5t49.5 65q12 16 31.5 42.5t21.5 30.5q4 8 4 11q0 12 -72 84q-80 80 -116 153q-31 66 -31 84q0 14 31.5 28.5t56.5 14.5q20 0 29.5 -7t23.5 -40q16 -35 65.5 -88t84.5 -80l24 -18l50 71q63 86 98 121q33 35 46 42t42 7 q33 0 42 -8t9 -37q0 -14 -57 -86q-41 -51 -95.5 -126.5t-54.5 -84t82 -129.5t107 -147q59 -70 59 -103q0 -4 -4 -16q-6 -14 -17.5 -18t-50.5 -4h-59l-33 43q-49 63 -131 192q-33 51 -41 51q-10 0 -77.5 -90t-110.5 -162l-27 -43h-53q-59 0 -60 23z" />
<glyph unicode="y" horiz-adv-x="886" d="M111 967q0 43 67 43h12q29 -2 37.5 -9.5t22.5 -46.5q74 -195 133 -299q37 -70 55 -108l25 -53l29 59q20 41 45 82q23 35 60.5 137t45.5 152q10 63 19 80q6 8 57 8t57 -8q2 -2 2 -17q0 -25 -6 -61q-10 -61 -49 -167t-84 -190q-37 -63 -72 -170q-25 -84 -53.5 -137 t-93.5 -184q-57 -115 -81 -148.5t-52 -33.5h-8q-29 2 -43 32l-17 29l64 123q14 27 34.5 66.5t35 67.5t20.5 40l26 49l-24 57q-100 213 -103 220q-161 332 -161 387z" />
<glyph unicode="z" horiz-adv-x="786" d="M106 963q0 20 39 45l37 22q72 -2 215.5 -2t214.5 -2l2 -22q0 -35 -18 -97q-25 -90 -154 -270q-41 -61 -89 -140t-48 -87q0 -6 146 -11q106 -2 180 -10q29 -4 34 -9t9 -34q4 -25 4 -33q0 -25 -26.5 -32t-116.5 -7q-16 0 -60.5 1t-75.5 1q-252 4 -264 13q-16 12 -16 47 q0 25 8 35q2 4 8 13t15.5 21.5t15.5 20.5q12 18 74 117q98 162 161 241q12 16 37 58.5t25 48.5t-164 6h-166l-14 27q-12 25 -13 39z" />
<glyph unicode="&#xa0;" />
<glyph unicode="&#xa1;" horiz-adv-x="417" d="M102 918q0 12 7 18q14 14 22 14q12 0 12 8q0 10 38 18.5t67 8.5q33 0 41 -4t12 -20q2 -8 6 -21.5t4 -17.5q0 -18 -20 -60q-27 -51 -62 -65q-37 -16 -55 -17q-39 0 -61 86q-10 41 -11 52zM127 340v303l29 23q35 31 59 30q23 0 29 -28q6 -20 6 -334v-135q0 -176 -17 -199 q-16 -25 -49 -25q-41 0 -49 51.5t-8 313.5z" />
<glyph unicode="&#xbf;" horiz-adv-x="763" d="M109 182v29q8 129 120 225q37 33 53.5 56.5t45.5 89.5q43 98 57 104q6 2 29.5 14.5t34.5 12.5q20 0 28 -41q4 -25 4 -29q0 -25 -24 -74q-49 -106 -69.5 -138t-59.5 -64q-94 -84 -95 -164q0 -25 17 -41q47 -43 147 -62q47 -8 82 -8q43 0 70 21q29 20 59 32q16 4 23 5 q23 0 22 -58q0 -74 -78 -108q-47 -18 -167 -19q-90 0 -127 12q-96 35 -134 79t-38 126zM336 911q-7 29 26 52q35 23 60 22q27 0 49.5 -21.5t26.5 -54.5q2 -8 2 -20q0 -20 -23 -45q-25 -29 -51.5 -29t-56.5 37q-29 33 -33 59z" />
<glyph unicode="&#xc1;" horiz-adv-x="1034" d="M111 287q0 12 12 55q55 176 86 238q31 66 31 80t22 51q18 31 52 119t38 98q18 41 31 110q10 47 34 101.5t44 70.5q53 41 88 41h8q16 -2 27.5 -13t31.5 -50q35 -68 39 -107q8 -49 23 -92q49 -133 84 -282q23 -90 104 -250q12 -25 31 -68q29 -74 29 -115q0 -68 -68 -67 q-23 0 -36 21.5t-77 152.5l-83 176h-332l-19 -41q-16 -35 -41 -123q-43 -156 -77 -164q-25 -6 -39 -6q-18 0 -33 31q-10 25 -10 33zM401 698q0 -8 117 -8h117l-6 31q-14 61 -84 250q-10 24 -10 53q0 43 -13 43q-6 0 -10 -25q-8 -66 -80 -254q-31 -78 -31 -90zM451 1356 q0 23 41 47q20 12 50.5 52t64.5 70.5t73 30.5q14 0 18 -6t9 -30q0 -4 1 -10.5t1 -8.5q0 -20 -45 -86q-92 -123 -156 -123q-33 0 -47 33q-10 20 -10 31z" />
<glyph unicode="&#xc9;" horiz-adv-x="765" d="M102 543v207l4 444l21 12q21 11 31 21q8 8 254 8h243l4 -39q2 -8 3 -22q0 -57 -58 -66q-55 -6 -205 -6h-172v-268q68 -2 203 -2.5t203 -2.5l6 -34q8 -35 -10 -60l-19 -26h-383v-332h33q16 0 213 -8l178 -4l6 -37q0 -4 1 -10.5t1 -8.5q0 -55 -34 -69q-14 -6 -117 -7 q-90 0 -225 7l-154 6l-14 28q-12 23 -13 269zM213 1348q0 12 27 51q35 51 69 76q109 84 140 92q18 6 28 6q23 0 31 -41q4 -20 4 -27q0 -43 -43 -63q-27 -10 -70 -47t-65 -68q-35 -47 -68 -47q-29 0 -45 41q-8 25 -8 27z" />
<glyph unicode="&#xcd;" horiz-adv-x="446" d="M102 743q0 319 5.5 392t25.5 73q13 1 23 15q12 16 39 12q29 -2 34 -31q6 -20 7 -461q0 -317 -2.5 -378.5t-14.5 -81.5q-18 -31 -53 -31q-25 0 -32 6t-17 31q-14 35 -15 454zM113 1339q0 10 22 33q23 25 44.5 60.5t21.5 50.5q0 12 37 39q35 27 51 26.5t28 -51.5l11 -53 l-35 -62q-63 -109 -117 -108h-8q-23 2 -30 8t-17 29q-8 25 -8 28z" />
<glyph unicode="&#xd1;" horiz-adv-x="1034" d="M102 735q0 438 14.5 465t25 27t24.5 14q12 12 35 12q27 0 37 -30q25 -66 186 -228q119 -119 238 -288q49 -74 86 -115l32 -39l6 291q2 68 2 186q0 125 -2 135q-2 8 -2 23q0 20 15.5 27.5t58.5 7.5t53.5 -3t16.5 -22q8 -27 0 -45t-16.5 -431t-24.5 -435q-20 -31 -62 -31 q-14 0 -24 6q-8 8 -86 125q-139 209 -210 299t-177 199l-101 100v-350q0 -258 -2 -307t-16 -68q-18 -27 -49 -27q-43 0 -50.5 63.5t-7.5 438.5zM266 1372q0 29 76 90q63 51 113 51q31 0 75 -20q68 -31 92.5 -31t45.5 21q43 37 51 43q25 14 55 14q16 0 21 -6q4 -10 8 -43 q2 -10 2 -25q0 -18 -21 -39q-14 -12 -49 -59l-24 -33h-101q-100 0 -141 21l-45 24l-37 -37q-37 -37 -68 -36q-20 0 -27 6t-18 28q-8 25 -8 31z" />
<glyph unicode="&#xd3;" horiz-adv-x="1099" d="M109 721q0 70 12 156q16 104 61 184t109 117q25 14 96.5 40.5t118.5 38.5q16 4 45 0q37 -6 78 -8q35 -4 57.5 -14t49 -28.5t46.5 -28.5q57 -29 95 -81.5t73 -152.5q43 -123 43 -207q0 -102 -73 -258q-35 -74 -76 -115.5t-115 -76.5q-53 -25 -75.5 -30t-86.5 -5 q-168 0 -270 53q-33 14 -72 66q-117 147 -116 350zM233 707q0 -125 76 -218q43 -49 99.5 -71.5t164.5 -28.5q23 -2 54 -2q37 0 67 16q47 25 69.5 51.5t49.5 88.5q55 127 55 192q0 51 -28 131q-47 139 -127 178q-45 25 -76 48q-29 23 -98 24h-21q-66 0 -160 -39 q-27 -10 -38 -23.5t-37 -64.5q-20 -37 -35 -123t-15 -159zM432 1362q0 20 31 59q43 58 123 113q33 23 71 22h19q39 -2 48 -7t9 -23q0 -45 -86 -109q-55 -39 -88 -76q-39 -45 -76 -45t-49 54q0 2 -1 6t-1 6z" />
<glyph unicode="&#xda;" horiz-adv-x="966" d="M104 1190l23 14q27 14 61 13l37 -3l4 -317q2 -319 15 -326q10 -6 18 -53q10 -78 53 -106q10 -8 107.5 -30t120 -22t84.5 27q49 23 67.5 45.5t26.5 68.5t12 158q6 141 6 361l-2 190l21 19q16 14 59 14q25 -2 31 -7t10 -32q6 -37 6 -227.5t-6 -347.5q-6 -166 -29 -207 q-33 -61 -59.5 -86t-103.5 -62q-100 -49 -152 -49q-43 0 -143.5 21.5t-128.5 36.5q-18 10 -55 64t-37 73q0 14 -21 39q-14 20 -17 68t-6 311zM391 1368q0 31 33 62q35 31 41 30.5t24.5 30.5t34.5 35q8 2 33 16t37 14q20 0 27 -38q2 -8 2 -25q0 -23 -21 -51q-23 -33 -78 -84 q-53 -51 -84 -51q-20 0 -34.5 20.5t-14.5 40.5z" />
<glyph unicode="&#xe1;" horiz-adv-x="829" d="M109 410q0 18 20 88q18 59 52 94t104 67q76 35 120 46.5t109 11.5h78l2 49q0 16 1 39.5t1 25.5q0 16 -59.5 32t-128.5 18h-31q-45 0 -82 -19q-35 -18 -51 -18q-23 0 -41 37l-17 34l21 23q41 43 137 70q41 10 90 10q78 0 154 -18.5t100.5 -45t31.5 -75t7 -195.5v-100 q-2 -219 -10 -273.5t-43 -68.5q-25 -8 -29 -9q-14 0 -31 29q-14 27 -26 23q-170 -74 -221 -74h-21q-147 14 -188 72q-49 63 -49 127zM240 422q0 -23 18 -35t70 -27q61 -16 71.5 -16t44.5 10q25 8 97 39l51 23v176h-78q-74 0 -133 -21q-70 -27 -94.5 -45t-36.5 -59 q-10 -31 -10 -45zM354 1126q0 12 6 19q39 55 89.5 113.5t60.5 62.5l37 18q20 10 28 11q18 0 27 -41q4 -20 4 -25q0 -18 -17.5 -42.5t-82.5 -102.5q-37 -45 -54.5 -57.5t-52.5 -16.5h-2q-14 0 -28.5 20.5t-14.5 40.5z" />
<glyph unicode="&#xe9;" horiz-adv-x="845" d="M111 633q0 88 18 133q35 82 37 90q16 43 65.5 84t112.5 61q49 16 102 17h31q49 -2 67.5 -7t53.5 -28q53 -35 74 -65q29 -43 47 -114t18 -128q0 -45 -10 -64q-14 -31 -22 -34q-12 -4 -238 -5h-102q-125 0 -125 -8q0 -16 42 -85.5t68 -96.5l33 -35l76 6q49 2 115.5 21.5 t87.5 23.5l40 7l7 -41q2 -8 2 -23q0 -55 -64 -74q-31 -6 -84 -26q-59 -20 -143 -23l-96 -4l-37 27q-35 25 -60 61q-76 121 -96 179.5t-20 150.5zM240 709h366v20q0 72 -84 127q-49 31 -98 31q-35 0 -72 -13q-57 -23 -73 -69q-2 -6 -11.5 -29.5t-13.5 -34.5zM352 1157 q0 8 4 21q10 23 56 77t73 70q27 18 56 18q18 0 23 -5t9 -23q4 -29 5 -33q0 -29 -43 -72q-29 -29 -72 -88q-25 -37 -47 -37h-8q-23 2 -39.5 25t-16.5 47z" />
<glyph unicode="&#xed;" horiz-adv-x="464" d="M102 627v329l29 23q35 31 59 31q23 0 29 -29q8 -29 8 -360q0 -248 -2 -295t-16 -66q-18 -27 -49 -27q-18 0 -26.5 5.5t-16.5 25.5q-14 31 -15 363zM119 1153q0 20 63 94t94 88q29 14 43 15q18 0 25 -37q2 -10 2 -25q0 -31 -61 -108q-70 -86 -115 -86q-18 0 -34.5 18 t-16.5 41z" />
<glyph unicode="&#xf1;" horiz-adv-x="847" d="M102 612q0 336 7 342q10 14 41.5 29.5t50.5 15.5h6q12 -4 12 -26.5t12 -22.5q8 0 37 17q27 20 76 30q49 12 109 13q84 0 157.5 -23.5t100.5 -62.5q23 -33 28.5 -99.5t5.5 -285.5q0 -201 -2 -245t-12 -58q-16 -23 -49 -23q-20 -2 -27.5 3t-17.5 28q-16 33 -16 301v272 l-56 25q-74 35 -164 35q-31 0 -55 -7q-37 -8 -78 -57l-41 -47v-502l-22 -24q-20 -25 -45 -25q-27 0 -43 33q-14 31 -15 364zM158 1159q0 41 43.5 82t111.5 66q23 8 47 8q49 0 111 -49q27 -23 68 -23q39 0 47 19q10 16 40.5 35.5t51.5 19.5q18 0 25.5 -12.5t11.5 -57.5 q0 -4 1 -12t1 -10q0 -29 -27 -74q-29 -53 -65 -64q-39 -12 -82 -12q-84 0 -131 45q-23 18 -62 29l-43 10l-35 -37q-35 -37 -61 -37q-39 0 -51 60q0 2 -1 7t-1 7z" />
<glyph unicode="&#xf3;" horiz-adv-x="903" d="M111 600q0 176 57 264q35 54 156 105q63 27 135 26q119 0 205 -55q18 -12 40.5 -22.5t28.5 -16.5t15.5 -23.5t19.5 -54.5q29 -86 29 -211q0 -94 -17 -151q-33 -123 -104 -176q-66 -51 -178 -52q-8 0 -25.5 1.5t-28.5 1.5q-166 8 -229 75q-72 76 -98 205q-6 37 -6 84z M236 612q0 -106 57 -172q61 -72 223 -71q76 0 95.5 17t52.5 120q6 18 6 72q0 119 -17 172q-6 20 -50 51t-91 47q-25 10 -86 10q-59 0 -82 -10q-43 -14 -60.5 -37t-31.5 -76q-16 -57 -16 -123zM352 1135v4q0 39 57.5 102t120.5 94q8 6 43 6q20 -2 27.5 -8t11.5 -28 q2 -6 2 -21q0 -59 -41 -70q-57 -16 -90 -69q-41 -61 -82 -62q-37 0 -47 47z" />
<glyph unicode="&#xfa;" horiz-adv-x="833" d="M102 580v112l4 266l33 23q29 20 51 20q25 0 31 -28q8 -29 8 -283q0 -227 11.5 -267t74.5 -54q31 -6 68 -7q72 0 100 17q10 6 68 51l51 39q0 82 4 246t4 246l39 22q31 18 49.5 18t24.5 -28q6 -23 6 -359l2 -331l-22 -25q-23 -25 -52 -22q-31 2 -43 38l-12 37l-49 -28 q-86 -51 -234 -52q-88 0 -116.5 16.5t-58 60.5t-38.5 81q-4 29 -4 191zM348 1159q0 18 64 80q70 70 69.5 78t12 8t22.5 14.5t39 10.5q18 -2 24.5 -8.5t10.5 -28.5q2 -8 2 -21q0 -41 -96 -135q-66 -63 -95 -63q-23 0 -34 11t-17 40q-2 4 -2 14z" />
<glyph unicode="&#x2000;" horiz-adv-x="786" />
<glyph unicode="&#x2001;" horiz-adv-x="1573" />
<glyph unicode="&#x2002;" horiz-adv-x="786" />
<glyph unicode="&#x2003;" horiz-adv-x="1573" />
<glyph unicode="&#x2004;" horiz-adv-x="524" />
<glyph unicode="&#x2005;" horiz-adv-x="393" />
<glyph unicode="&#x2006;" horiz-adv-x="262" />
<glyph unicode="&#x2007;" horiz-adv-x="262" />
<glyph unicode="&#x2008;" horiz-adv-x="196" />
<glyph unicode="&#x2009;" horiz-adv-x="314" />
<glyph unicode="&#x200a;" horiz-adv-x="87" />
<glyph unicode="&#x202f;" horiz-adv-x="314" />
<glyph unicode="&#x205f;" horiz-adv-x="393" />
<glyph unicode="&#x25fc;" horiz-adv-x="1034" d="M0 0v1034h1034v-1034h-1034z" />
</font>
</defs>
</svg>
